<?xml version="1.0" encoding="UTF-8" standalone="no"?>
<!-- Created with Inkscape (http://www.inkscape.org/) -->

<svg
   xmlns:dc="http://purl.org/dc/elements/1.1/"
   xmlns:cc="http://creativecommons.org/ns#"
   xmlns:rdf="http://www.w3.org/1999/02/22-rdf-syntax-ns#"
   xmlns:svg="http://www.w3.org/2000/svg"
   xmlns="http://www.w3.org/2000/svg"
   xmlns:sodipodi="http://sodipodi.sourceforge.net/DTD/sodipodi-0.dtd"
   xmlns:inkscape="http://www.inkscape.org/namespaces/inkscape"
   width="500"
   height="500"
   id="svg2"
   version="1.1"
   inkscape:version="0.48.3.1 r9886"
   sodipodi:docname="cheval noir modif.svg">
  <defs
     id="defs4" />
  <sodipodi:namedview
     id="base"
     pagecolor="#ffffff"
     bordercolor="#666666"
     borderopacity="1.0"
     inkscape:pageopacity="0.0"
     inkscape:pageshadow="2"
     inkscape:zoom="1.167"
     inkscape:cx="186.34997"
     inkscape:cy="274.38195"
     inkscape:document-units="px"
     inkscape:current-layer="layer1"
     showgrid="false"
     inkscape:window-width="1300"
     inkscape:window-height="744"
     inkscape:window-x="66"
     inkscape:window-y="24"
     inkscape:window-maximized="1" />
  <metadata
     id="metadata7">
    <rdf:RDF>
      <cc:Work
         rdf:about="">
        <dc:format>image/svg+xml</dc:format>
        <dc:type
           rdf:resource="http://purl.org/dc/dcmitype/StillImage" />
        <dc:title></dc:title>
      </cc:Work>
    </rdf:RDF>
  </metadata>
  <g
     inkscape:label="Layer 1"
     inkscape:groupmode="layer"
     id="layer1"
     transform="translate(0,-552.36218)">
    <path
       style="fill:#000000"
       d="m 162.16783,970.22733 c -2.63192,0.11902 -2.426,-1.59799 -8.46078,-0.23076 -5.83964,1.32306 -1.25609,-4.93325 -4.26834,-6.66598 -2.71974,-1.56448 -0.49053,-9.71611 1.27771,-21.33011 1.51669,-9.44137 1.57754,-8.76115 -2.16104,-24.15975 -0.97715,-4.02468 -2.86438,-10.02373 -4.19386,-13.33121 -1.32946,-3.30749 -2.41984,-6.34606 -2.42305,-6.75241 -0.003,-0.40633 -0.51935,-1.76975 -1.14695,-3.02981 -3.97385,-7.97859 -4.91856,-10.25367 -4.91856,-11.8452 0,-0.98232 1.02256,-3.6652 2.27236,-5.96196 l 2.27238,-4.17591 -1.96939,-1.84949 c -4.13152,-3.88004 -2.50118,-7.51402 8.68609,-19.36105 4.80683,-5.09029 7.5379,-8.94682 7.46677,-10.54379 -0.0362,-0.81158 -2.72494,-3.7291 -7.42305,-8.05456 -11.78395,-10.84919 -18.43215,-16.54755 -19.30583,-16.54755 -0.44695,0 -1.79511,0.8098 -2.99585,1.79957 -2.24284,1.84873 -3.69787,5.14176 -4.50661,10.19946 -0.30932,1.93437 -1.22393,3.43654 -3.85261,6.3276 -1.89586,2.08508 -4.43687,5.29081 -5.64673,7.12385 -1.22689,1.85889 -7.44961,8.29051 -14.070744,14.54314 -6.529073,6.16569 -15.655876,15.43694 -20.281804,20.60278 -7.603705,8.49119 -25.789671,26.60668 -28.81275,28.70108 -0.666569,0.46181 -2.848031,1.33662 -4.847709,1.94404 -4.839507,1.47004 -6.784994,2.87537 -7.290666,5.26652 -0.228101,1.07862 -0.907908,2.50648 -1.510695,3.17304 -0.602772,0.66656 -1.785396,2.77987 -2.628073,4.69622 -0.842646,1.91637 -1.921283,3.4843 -2.396954,3.4843 -0.540169,0 -1.010103,0.90846 -1.2518,2.41995 -0.212847,1.33099 -0.861233,3.17338 -1.440877,4.09421 -1.244599,1.97723 -7.153375,7.56743 -9.033406,8.54637 -1.281847,0.66748 -1.319304,0.57716 -1.535871,-3.70389 -0.202059,-3.99411 0.197115,-7.76768 2.03464,-19.23418 0.551271,-3.44006 0.480242,-4.31979 -0.561028,-6.94813 -1.809526,-4.56753 -2.378128,-4.65581 -7.192475,-1.11681 -2.2861375,1.68052 -4.7844945,3.38183 -5.5519295,3.78072 l -1.395322,0.72523 1.223159,-2.39758 c 0.672725,-1.31866 2.186154,-3.99461 3.363146,-5.94655 1.1769925,-1.95192 2.1406895,-3.75347 2.1415555,-4.00343 0.003,-0.96713 -1.473044,-0.36489 -4.4343425,1.80891 -1.695856,1.24487 -2.841995,1.85841 -2.546974,1.36343 0.819713,-1.37537 8.0391865,-10.53849 12.2850495,-15.59246 3.389382,-4.03448 4.572052,-6.21328 3.372634,-6.21328 -0.228057,0 -1.605704,0.57658 -3.061447,1.28129 -1.455742,0.70472 -2.763197,1.16491 -2.905464,1.02264 -0.444534,-0.44453 4.494554,-5.81877 14.801365,-16.10537 9.116822,-9.09896 9.854703,-9.99526 8.962827,-10.88714 -1.058915,-1.05891 -3.996651,-1.28684 -6.626771,-0.51413 -2.698056,0.79266 -1.987188,-0.56218 1.622736,-3.09276 1.809033,-1.26815 6.371791,-4.48719 10.139444,-7.15343 3.767653,-2.66624 7.597834,-5.17245 8.511524,-5.56934 0.91369,-0.3969 2.602211,-1.66261 3.752294,-2.81268 1.150084,-1.15009 2.452355,-2.21259 2.893945,-2.36114 0.618579,-0.20808 0.640886,-0.46662 0.09727,-1.12609 -0.519313,-0.62992 -2.119757,-0.83818 -6.059633,-0.78856 -5.99095,0.0754 -9.155712,0.60238 -10.504643,1.74904 -1.076022,0.91468 -8.623699,4.00196 -8.96048,3.66518 -0.128043,-0.12804 0.398486,-0.57061 1.170044,-0.98354 0.771544,-0.4129 1.780691,-1.12864 2.242556,-1.59051 1.11191,-1.11191 7.701881,-4.42251 8.803288,-4.42251 0.476343,0 2.924902,-1.05289 5.441233,-2.33976 2.516316,-1.28685 5.535211,-2.49555 6.708632,-2.68595 2.27281,-0.36883 7.621365,-3.70115 7.621365,-4.74836 0,-0.34452 0.920458,-2.19689 2.045456,-4.11641 1.124998,-1.91951 2.916297,-6.192 3.980665,-9.49441 3.96538,-12.30326 5.475462,-16.09993 8.534145,-21.45646 1.42731,-2.4996 3.553222,-6.31717 4.724238,-8.4835 3.723503,-6.88825 7.43746,-11.23418 13.784853,-16.13048 9.916524,-7.6495 11.225124,-8.3272 18.982304,-9.83057 6.69892,-1.29827 7.0829,-1.46059 12.72525,-5.37901 3.19984,-2.22217 7.454,-5.13021 9.45368,-6.46229 1.99969,-1.33207 4.31191,-3.65901 6.66562,-5.2137 9.15926,-6.04996 18.45401,-12.34438 28.84092,-15.8949 9.84758,-3.36616 20.46999,-4.02536 30.84652,-4.82126 3.32305,-0.25488 7.33217,0.29002 9.99842,0.0194 2.66625,-0.27064 9.48333,-0.78192 15.14909,-1.13618 11.51738,-0.72013 21.44132,-1.75838 31.81312,-3.3283 6.44237,-0.97516 7.39543,-1.3007 12.62174,-4.3115 3.10921,-1.7912 5.74443,-3.25671 5.85605,-3.25671 0.28352,0 19.76043,-12.29873 24.54565,-15.49943 2.16633,-1.44899 11.9097,-9.64631 18.17893,-14.04246 15.16364,-10.63316 30.31208,-21.55906 46.91474,-29.76586 6.73842,-3.33084 13.81128,-6.21732 21.16132,-7.79137 5.9355,-1.27112 12.09683,-1.20998 18.16672,-1.25828 4.28313,-0.0341 8.57223,0.2319 12.8316,0.68379 2.92217,0.31002 5.85653,0.66906 8.70568,1.38844 5.11111,1.2905 7.78014,2.13906 14.92768,5.22151 2.33296,1.00612 6.46273,2.67927 9.08946,3.91337 1.7558,0.82491 4.9678,2.14472 7.63161,3.66014 3.30845,1.88214 5.57771,3.75349 9.65125,7.53631 3.70317,3.43883 7.39187,5.96023 8.03863,5.96023 0.64419,0 2.73968,-0.83592 4.65653,-1.85762 1.9169,-1.0217 5.15912,-2.20256 7.2049,-2.62416 l 3.71965,-0.76652 0,2.64651 c 0,2.39364 -0.4632,3.23183 -4.84771,8.77264 -2.66625,3.3694 -4.84771,6.36972 -4.84771,6.6674 0,0.29768 0.54537,1.61025 1.21192,2.91682 1.50577,2.95154 1.50577,3.8612 0,10.90736 -0.66655,3.11913 -1.21192,5.89489 -1.21192,6.16837 0,0.27348 -0.66643,0.49723 -1.48092,0.49723 -1.5137,0 -3.06618,2.75271 -9.1901,16.29494 -1.05917,2.34219 -3.97131,6.53303 -7.36884,10.60437 -4.84073,5.80075 -13.47027,19.09552 -13.47027,20.75247 0,0.30249 -0.97057,2.02373 -2.15681,3.82495 -1.18623,1.80123 -4.07231,6.47842 -6.41352,10.39377 -2.34121,3.91532 -4.62381,7.25966 -5.07253,7.43185 -2.15857,0.82834 -14.13714,1.1146 -16.33176,0.39032 -5.0361,-1.66208 -11.8369,-10.07486 -11.8369,-14.64264 0,-2.12105 0.37181,-2.96694 2.07893,-4.72947 2.02684,-2.09261 2.08883,-2.30594 2.47398,-8.50904 0.2919,-4.70153 0.16518,-7.23273 -0.4855,-9.69543 -0.75133,-2.84378 -0.7597,-3.7329 -0.0569,-6.05964 1.18071,-3.90797 1.12576,-13.25842 -0.0807,-13.72137 -1.74003,-0.66771 -3.47145,1.35826 -7.3401,8.58886 -11.52655,21.54339 -11.80578,22.82838 -6.85541,31.54649 l 3.06575,5.39913 -0.25268,7.87754 -0.2527,7.87752 -4.02499,9.88847 c -2.21371,5.43865 -4.025,10.36579 -4.025,10.94919 0,1.22294 8.24002,9.38775 15.75509,15.61128 4.77596,3.95518 15.11389,11.11925 16.04532,11.11925 1.19356,0 8.80738,5.60093 10.37676,7.63342 4.03094,5.22047 6.80134,14.67676 5.65966,19.3185 -0.24778,1.00726 -1.12989,3.46747 -1.9603,5.46715 -1.23926,2.98422 -1.63787,5.42761 -2.22413,13.63421 -1.35785,19.00744 -1.37923,19.14564 -3.26251,21.11137 -2.22286,2.32018 -6.7396,4.71583 -9.84432,5.22141 -1.97235,0.32117 -3.21191,1.14934 -6.05963,4.04845 -4.43675,4.5167 -5.56457,5.10907 -10.76132,5.65224 -2.28327,0.23865 -6.44123,1.22732 -9.23988,2.19703 -6.30826,2.18577 -7.68077,2.21038 -9.28846,0.16649 -1.67536,-2.12986 -1.58277,-3.58532 0.35123,-5.51927 1.3156,-1.3156 1.68331,-2.38522 2.02712,-5.89678 0.44388,-4.5335 1.21976,-6.62436 2.6637,-7.17846 0.4829,-0.18531 3.62634,-2.41271 6.98544,-4.94981 l 6.10745,-4.6129 0,-2.98504 c 0,-3.72434 1.28028,-4.73141 6.90145,-5.42852 2.15209,-0.26689 4.19055,-0.65687 4.52989,-0.86661 1.39329,-0.8611 4.97472,-7.69727 5.5093,-10.51601 0.31559,-1.66414 0.41072,-4.97075 0.21143,-7.348 l -0.36238,-4.32227 -3.7903,-3.7783 c -7.78815,-7.76346 -9.20847,-8.92902 -10.88057,-8.92902 -2.54189,0 -16.69093,-4.62177 -26.05441,-8.51066 -16.00332,-6.64658 -20.15158,-7.10735 -25.31342,-2.81172 -6.96658,5.79746 -6.35904,4.47838 -7.58685,16.47307 -0.37461,3.65964 -1.26489,7.35111 -2.70642,11.22164 -2.01895,5.42099 -2.17238,6.35055 -2.55056,15.4521 -0.46756,11.25304 -1.23647,18.26966 -2.4224,22.10637 -3.27851,10.60647 -2.33836,9.15101 -10.85148,16.79907 l -7.83027,7.03458 -3.75789,7.92849 c -2.06689,4.36069 -4.20958,8.8829 -4.76161,10.04938 -0.73739,1.5583 -2.0115,2.65596 -4.80347,4.13812 -4.06572,2.15834 -4.29246,2.4482 -8.76,11.19581 -2.47652,4.84912 -2.87027,5.31868 -4.31968,5.1507 -1.13472,-0.13148 -1.65197,-0.58822 -1.79298,-1.58317 -0.24572,-1.73353 -1.63738,-1.38706 -1.57242,0.39148 0.0599,1.64398 -6.26921,7.51726 -8.42662,7.54484 -2.15088,0.0275 -5.68489,-5.54759 -6.59161,-8.21204 -1.16732,-3.4304 -0.70981,-7.5725 1.03622,-12.2112 0.99536,-2.64448 1.51249,-5.25583 1.51249,-7.63778 0,-3.61051 -0.0105,-3.63002 -3.93877,-7.91145 -2.16633,-2.36058 -3.93804,-4.61137 -3.93713,-5.00172 6e-4,-0.39034 1.03395,-1.90682 2.29563,-3.36995 l 2.29406,-2.66024 6.05698,1.29683 c 3.33129,0.71324 6.59302,1.29471 7.24825,1.29214 1.27663,-0.004 9.3849,-3.95585 18.00463,-8.77293 4.87032,-2.72172 5.54253,-3.33352 8.28972,-7.54502 l 2.9897,-4.58314 0.16228,-26.66242 0.16228,-26.66241 -2.81247,-4.54474 c -1.5469,-2.4996 -3.60487,-5.48564 -4.57332,-6.63565 l -1.76083,-2.09092 -32.66194,1.0712 c -36.13824,1.18521 -33.16247,1.3509 -47.50812,-2.64535 -8.05459,-2.24375 -23.52839,-4.47728 -24.63808,-3.55634 -0.39472,0.32759 -0.89735,1.65907 -1.11694,2.95883 -0.24862,1.47152 -1.54661,3.87883 -3.43999,6.37994 -3.61657,4.77738 -6.55688,10.17845 -6.55688,12.04439 0,4.06674 -1.88451,7.56727 -7.74151,14.38005 -3.25182,3.78243 -6.7224,7.96789 -7.71245,9.301 -2.72849,3.67399 -9.91717,12.30171 -10.60309,12.72562 -1.85999,1.14953 0.176,3.51435 7.27216,8.44679 2.83288,1.96908 6.61297,4.82793 8.40017,6.35298 3.83592,3.27323 6.7182,5.34721 15.04737,10.8275 3.39767,2.23553 6.44687,4.6504 6.77602,5.36635 0.32915,0.71596 0.7911,3.98818 1.02657,7.27157 0.23547,3.28341 0.67098,6.62214 0.9678,7.41941 0.29683,0.79729 1.08594,3.90206 1.75361,6.89952 l 1.21395,5.44991 -2.24506,4.78418 c -2.1902,4.66724 -3.55449,5.07217 -6.12685,6.63677 -1.25022,0.76043 -2.77914,1.00102 -4.23372,1.1607 -1.17816,0.12933 -2.37027,-0.0761 -3.55147,-0.17383 -1.04041,-0.0861 -2.1781,0.10595 -3.11079,-0.36306 -1.81222,-0.91129 -3.64779,-1.30766 -4.17074,-4.43128 -0.47574,-2.84161 -3.2383,-6.70407 -9.33223,-13.04788 l -4.85692,-5.05607 1.12636,-1.65434 c 4.73544,-6.9552 4.64874,-6.73429 4.64874,-11.84497 l 0,-4.84467 -7.79802,-6.371 c -8.45251,-6.90573 -8.69086,-6.97842 -10.8422,-3.30655 -0.83809,1.43044 -1.15129,3.85746 -1.4585,11.30255 -0.28066,6.80193 -0.62117,9.6718 -1.20508,10.15641 -1.27491,1.05807 -0.96039,1.67459 0.79079,1.55009 1.39712,-0.0994 1.7606,0.27781 2.8101,2.91574 0.66298,1.66641 2.97888,7.11969 5.14642,12.1184 4.21156,9.71251 4.70831,11.09999 5.60516,15.65552 0.74972,3.8082 15.09694,21.73069 12.8208,25.6511 -3.36983,5.80419 -16.63622,6.18883 -18.03668,5.07429 z m 38.20074,-59.87144 c 1.01706,-1.12383 0.98609,-1.20504 -0.81502,-2.13643 -1.02975,-0.53251 -1.87228,-1.28446 -1.87228,-1.67103 0,-0.98693 -2.47102,-3.50778 -3.43843,-3.50778 -0.44183,0 -0.80333,0.39546 -0.80333,0.87883 0,0.48336 -0.41953,1.11363 -0.93232,1.40059 -0.83809,0.46903 -0.83847,0.70171 -0.003,2.30247 0.51073,0.9794 0.93027,2.10431 0.93233,2.49979 0.003,0.6296 1.10933,0.92359 4.90901,1.30483 0.5316,0.0533 1.44228,-0.42873 2.02377,-1.07127 z M 43.645282,904.21728 c 1.766437,-1.013 3.375816,-2.30568 3.576396,-2.87264 0.200595,-0.56696 0.77607,-1.50971 1.278828,-2.09499 1.53729,-1.78959 0.268053,-1.93534 -2.147785,-0.24662 -4.678625,3.27042 -8.120224,7.0836 -6.3736,7.06175 0.24996,-0.003 1.899724,-0.8345 3.666161,-1.8475 z m 11.76242,-11.17504 c 1.668096,-1.49977 3.331276,-2.72684 3.695981,-2.72684 0.944245,0 4.659531,-3.71853 4.659531,-4.6636 0,-1.9361 -2.50523,-0.40501 -7.125376,4.35474 -2.746658,2.82964 -4.993905,5.28379 -4.993905,5.45366 0,0.73125 0.914676,0.14358 3.763769,-2.41796 z m 342.843008,-4.07649 c 0.91077,-0.56875 1.62144,-0.58114 3.02157,-0.0526 1.72543,0.65125 1.83081,0.60599 1.83081,-0.78623 0,-2.62037 -4.82554,-3.59603 -7.13662,-1.44294 -2.27969,2.12385 -0.42672,3.97482 2.28424,2.2818 z m 16.28396,-72.17648 c 0.51368,-0.61896 0.3265,-1.13554 -0.79235,-2.18666 -0.96004,-0.90188 -1.44705,-2.00691 -1.41293,-3.206 0.0357,-1.2542 -0.40654,-2.18751 -1.40584,-2.96714 -2.15336,-1.68 -6.54443,-3.82112 -6.96793,-3.39761 -0.64317,0.64319 0.38467,1.66049 1.67774,1.66049 1.03335,0 1.1923,0.28524 0.92828,1.66625 -0.42884,2.24336 1.01002,5.49047 2.72326,6.1456 0.766,0.29291 1.91219,1.10923 2.54711,1.81404 1.34784,1.49632 1.78807,1.57304 2.70266,0.47103 z M 191.5311,813.35718 c 0.71225,-2.04319 0.27752,-3.27936 -3.27234,-9.30479 -1.14995,-1.9519 -2.09082,-3.73274 -2.09082,-3.95741 0,-0.22468 0.81806,-0.71727 1.8179,-1.09468 2.17472,-0.82086 2.26498,-1.78356 0.45448,-4.84707 -1.19597,-2.02365 -1.36647,-3.16288 -1.38818,-9.27558 -0.0185,-5.22722 -0.28507,-7.55852 -1.06647,-9.32941 -1.00524,-2.27812 -1.08257,-2.32385 -2.20806,-1.30529 -1.1098,1.00435 -1.24078,1.00129 -2.70176,-0.063 -0.84449,-0.61522 -1.54399,-1.32308 -1.55446,-1.57304 -0.0105,-0.24996 -0.42728,-0.45447 -0.92624,-0.45447 -0.49896,0 -1.96842,-0.95874 -3.26545,-2.13053 -2.46792,-2.22962 -3.22346,-4.22674 -3.24444,-8.57606 -0.009,-1.74559 -0.24234,-2.43775 -0.75708,-2.24022 -1.48065,0.56817 -2.26872,3.04048 -1.83509,5.75696 0.52354,3.27985 6.79082,14.52556 8.31767,14.92484 1.07166,0.28024 5.32737,8.15188 5.32737,9.85383 0,0.43871 0.45369,1.29897 1.00819,1.91169 1.31346,1.45137 0.4501,3.14675 -2.85776,5.61174 -2.11014,1.57248 -2.39217,2.07703 -2.39217,4.27953 0,3.39834 4.12411,9.03302 7.36102,10.05716 1.30465,0.41279 2.47872,1.28841 2.86533,2.13693 0.87991,1.93117 1.64448,1.8102 2.40836,-0.3811 z m -13.24068,-35.02395 c 0,-1.276 1.11796,-2.54504 2.24206,-2.54504 0.98944,0 1.02985,1.93937 0.0607,2.90863 -1.07596,1.07596 -2.30266,0.88227 -2.30266,-0.36359 z m -22.42067,33.48071 c 0,-1.34667 -3.88071,-7.22383 -5.53505,-8.38258 -1.61134,-1.12863 -3.89895,-1.28802 -4.50115,-0.31363 -0.37992,0.61473 0.29668,1.53129 3.19041,4.32198 5.66258,5.46092 6.84579,6.21696 6.84579,4.37423 z m -37.56978,-1.64539 c 0,-1.23711 -2.28968,-5.03968 -5.32148,-8.83757 -1.13346,-1.41987 -1.13482,-1.4156 -0.70642,2.21775 0.30393,2.57754 0.91369,4.27551 2.08856,5.81584 1.91308,2.50819 3.93934,2.92172 3.93934,0.80398 z m 82.30176,-22.15705 c 0.13313,-0.90456 0.62105,-1.31596 1.56078,-1.31596 1.55168,0 3.56706,-1.92406 5.15994,-4.92614 0.59605,-1.12334 2.22184,-2.67991 3.61289,-3.45904 1.60663,-0.89988 2.84077,-2.16235 3.38343,-3.46114 0.46986,-1.12452 1.9424,-2.80487 3.27223,-3.73411 1.32991,-0.92925 2.70327,-2.29771 3.05201,-3.04103 0.37084,-0.7906 0.98645,-1.21622 1.48321,-1.02558 0.98923,0.3796 2.82342,-1.25353 2.82342,-2.51394 0,-0.58309 0.68299,-0.86565 2.09234,-0.86565 2.67813,0 5.15452,-1.0706 6.70796,-2.89997 1.22217,-1.43931 1.23181,-1.44026 3.3328,-0.33218 1.15886,0.6112 2.19796,1.31578 2.30903,1.56574 0.36975,0.83189 2.38974,0.46869 2.76004,-0.49625 0.24245,-0.63187 0.77231,-0.8214 1.57976,-0.56513 1.1306,0.35886 1.21489,0.1131 1.21489,-3.5435 0,-2.39485 0.26886,-4.01873 0.68851,-4.15862 0.49306,-0.16434 0.45827,-0.59817 -0.12237,-1.52801 -0.68275,-1.09325 -0.67184,-1.55839 0.069,-2.94267 0.48391,-0.90429 0.80162,-2.10646 0.70599,-2.67146 -0.21583,-1.2753 1.37549,-2.67465 2.53543,-2.22954 1.28288,0.49228 5.21298,-0.87985 5.21298,-1.82003 0,-0.44853 -0.334,-1.35035 -0.7423,-2.00407 -1.09195,-1.7485 0.25589,-3.00372 1.68785,-1.57182 0.56288,0.56289 1.60295,0.94076 2.31126,0.8397 1.07486,-0.15335 1.31846,-0.65983 1.47262,-3.06207 0.17518,-2.73018 0.80696,-3.60922 1.63319,-2.27236 0.63706,1.03075 2.88361,0.66996 4.33835,-0.69674 1.33481,-1.25395 1.40068,-1.25961 1.76044,-0.1515 0.20554,0.63318 0.66499,1.75961 1.02098,2.50318 0.55059,1.15 0.40662,1.54133 -0.96384,2.61934 -2.21268,1.74047 -2.06548,2.619 0.35819,2.13815 4.46849,-0.88656 4.30761,-0.99485 4.35233,2.92957 0.026,2.29844 0.3128,3.67595 0.79836,3.83777 0.49677,0.16555 0.75746,-0.39059 0.75746,-1.61596 0,-1.02762 0.24353,-1.86838 0.54112,-1.86838 1.00567,0 1.24605,1.8145 0.65402,4.93622 -0.32407,1.7087 -0.58918,3.20585 -0.58918,3.327 0,0.12117 0.55392,0.22027 1.23096,0.22027 1.41461,0 2.3266,1.72317 1.26065,2.38196 -0.8946,0.55291 -0.28972,2.25092 0.97475,2.73614 1.45879,0.5598 1.69392,-0.13253 0.49489,-1.45751 -1.04626,-1.15606 -1.02959,-1.218 0.51737,-1.92284 1.15098,-0.52442 1.49977,-1.0392 1.24593,-1.83898 -0.2596,-0.81785 -0.0406,-1.1107 0.82955,-1.1107 0.67147,0 1.31865,0.52218 1.49819,1.20887 0.4606,1.76133 2.093,2.15004 3.53787,0.84244 1.22338,-1.10713 1.27718,-1.0889 3.29861,1.11685 3.7653,4.10865 6.92593,5.11934 6.92593,2.21475 0,-0.63416 0.56592,-1.62756 1.25757,-2.20753 2.48663,-2.08517 2.57371,-3.00316 0.52658,-5.5506 -1.33095,-1.65617 -1.78329,-2.73255 -1.51,-3.59347 0.27777,-0.87518 0.0327,-1.42031 -0.85097,-1.89326 -1.53041,-0.81904 -1.64717,-3.3635 -0.18063,-3.93478 0.76552,-0.29819 1.65029,0.24984 3.18132,1.97044 1.16647,1.31094 3.00709,2.88987 4.09025,3.50871 1.08317,0.61887 1.99556,1.27093 2.0275,1.44902 0.0321,0.17811 0.12132,2.15914 0.19838,4.40231 0.0994,2.88843 0.45066,4.42142 1.20399,5.25382 0.58501,0.64643 1.69538,2.35601 2.46755,3.79906 1.49758,2.79887 1.91619,2.95731 8.03976,3.04308 2.13269,0.0299 2.57534,0.23819 2.57534,1.21201 0,0.92483 0.35504,1.13501 1.66259,0.98422 1.49273,-0.17215 1.66827,-0.43941 1.71761,-2.6156 0.0303,-1.33313 -0.30997,-3.96688 -0.75595,-5.85276 -0.44592,-1.88591 -0.64044,-3.87302 -0.43212,-4.41582 0.21585,-0.56245 -0.0962,-1.51162 -0.72545,-2.20697 -1.03172,-1.14003 -1.03941,-1.3274 -0.11713,-2.85577 1.34123,-2.22258 3.6662,-2.47269 4.5689,-0.49148 0.60717,1.33259 0.5381,1.52818 -0.59924,1.69597 -0.7071,0.10428 -1.39783,0.53051 -1.53503,0.94711 -0.17524,0.53207 0.57694,0.75745 2.52791,0.75745 1.5275,0 2.77732,-0.27268 2.77732,-0.60597 0,-1.17266 2.38979,-0.58983 3.1058,0.75746 0.94349,1.77544 5.39181,6.2144 6.69741,6.68332 0.55919,0.20085 1.10456,1.13117 1.21194,2.06737 0.15561,1.35727 0.47143,1.67294 1.5586,1.55785 1.01802,-0.10772 1.36342,0.17079 1.36342,1.09956 0,0.68414 0.81806,1.93225 1.81789,2.77355 1.2106,1.01868 1.8179,2.08789 1.8179,3.20074 0,1.08985 0.73763,2.4306 2.12086,3.85486 1.16649,1.20108 2.1416,2.81084 2.167,3.57725 0.18809,5.6865 6.64948,12.73003 10.73676,11.70418 2.05483,-0.51573 2.52748,-1.27149 2.53906,-4.06015 0.006,-1.22811 0.28972,-2.97052 0.63244,-3.87202 0.47006,-1.23623 0.41927,-1.87892 -0.20657,-2.6148 -0.5038,-0.59246 -0.75951,-2.02535 -0.65098,-3.64805 0.12684,-1.89758 -0.16459,-3.15452 -1.00536,-4.3353 -1.49674,-2.10198 -1.49091,-2.76918 0.0279,-3.16632 0.71674,-0.18745 1.21194,-0.82654 1.21194,-1.56427 0,-0.68604 -0.54537,-1.5392 -1.21194,-1.89595 -0.66655,-0.35672 -1.21192,-0.92521 -1.21192,-1.26327 0,-0.33808 -0.95439,-1.5974 -2.12088,-2.79847 -1.16647,-1.2011 -2.12088,-2.70526 -2.12088,-3.34261 0,-1.87532 -1.1609,-3.50299 -2.49844,-3.50299 -1.12503,0 -1.20387,0.24597 -0.82526,2.57535 0.23027,1.41643 0.63092,2.80206 0.89034,3.07915 0.25948,0.27709 0.19227,1.41448 -0.14926,2.52752 -0.5135,1.67301 -0.39837,2.47397 0.66443,4.62204 1.28137,2.58993 1.28169,2.60248 0.087,3.87417 -0.65917,0.7017 -1.19854,1.73544 -1.19854,2.2972 0,1.20062 -1.97925,1.38078 -2.89977,0.26392 -0.34334,-0.41659 -0.74873,-2.52989 -0.90077,-4.69622 -0.30316,-4.31966 -2.78417,-12.08638 -4.68622,-14.6701 -0.66475,-0.90302 -1.20866,-2.102 -1.20866,-2.66442 0,-0.5624 -0.9544,-2.18727 -2.12087,-3.6108 -2.35975,-2.8798 -2.71363,-4.169 -0.99451,-3.62337 0.6405,0.20328 1.44505,-0.0265 1.86503,-0.53252 0.63148,-0.76091 0.98366,-0.60907 2.42767,1.04675 0.92895,1.06522 1.8805,2.55032 2.11458,3.3002 0.24869,0.79679 0.91222,1.36341 1.59666,1.36341 1.2312,0 1.56332,-1.17422 0.60838,-2.15117 -0.34303,-0.35101 -0.3511,-2.43899 -0.0206,-5.35028 0.36176,-3.18664 0.33104,-5.16887 -0.0923,-5.96006 -0.34897,-0.65198 -0.47142,-1.3484 -0.27225,-1.5476 0.55943,-0.55942 1.78402,0.91867 2.54184,3.06804 0.68741,1.94952 0.90209,2.0555 2.72508,1.34527 0.76878,-0.29952 1.0808,0.12012 1.41534,1.90353 0.5727,3.05247 1.45978,4.64443 5.11938,9.18688 1.6959,2.10507 3.0875,4.42289 3.09241,5.1507 0.006,0.72779 0.40776,2.00499 0.89525,2.8382 0.48744,0.83319 1.45056,2.6738 2.14027,4.09025 0.95112,1.95329 1.60107,2.57535 2.69096,2.57535 0.79037,0 1.86455,0.16405 2.38708,0.36459 0.66413,0.25483 1.1363,-0.15557 1.56866,-1.36343 0.34019,-0.9504 1.02572,-2.45178 1.52334,-3.3364 0.49761,-0.88463 0.90475,-2.30994 0.90475,-3.16735 0,-0.99419 0.54882,-1.91852 1.51491,-2.55154 0.8332,-0.54594 1.51491,-1.49053 1.51491,-2.09908 0,-0.60857 0.23748,-1.25324 0.52774,-1.43262 0.29019,-0.17938 0.69243,-1.14986 0.8938,-2.15663 0.3234,-1.61707 0.61262,-1.8305 2.48076,-1.8305 2.38252,0 3.36927,-1.20898 3.36927,-4.12801 0,-1.13703 0.45909,-2.08862 1.26604,-2.62444 1.05342,-0.69944 1.19655,-1.21142 0.85198,-3.04797 -0.28837,-1.53714 -0.80271,-2.30894 -1.69409,-2.54203 -1.68319,-0.44017 -2.05681,0.016 -1.17272,1.43157 0.63044,1.00947 0.26862,1.61622 -2.90129,4.86587 -1.99181,2.04193 -3.62149,3.96471 -3.62149,4.27284 0,1.08827 -1.73112,0.54151 -2.82779,-0.89314 -0.61105,-0.79936 -1.76481,-1.64858 -2.56401,-1.88715 -1.36718,-0.40817 -1.43014,-0.31957 -1.06632,1.4996 l 0.38667,1.93342 -2.37707,-1.88269 c -1.42694,-1.13015 -2.66746,-2.78356 -3.10352,-4.1365 -1.0231,-3.17453 -1.00377,-3.15877 -3.01485,-2.45772 -1.44419,0.50346 -2.12881,0.42697 -3.35201,-0.37447 -0.84538,-0.55393 -1.7002,-1.46846 -1.89963,-2.03228 -0.19936,-0.56382 -0.69444,-1.43415 -1.10013,-1.93407 -0.4057,-0.49992 -0.92392,-2.81774 -1.15151,-5.1507 -0.22767,-2.33296 -0.67233,-4.5008 -0.98814,-4.81741 -0.31584,-0.31662 -0.57428,-1.07326 -0.57428,-1.68141 0,-0.62188 -0.66293,-1.35777 -1.51491,-1.68169 -0.83321,-0.31679 -1.51491,-1.03844 -1.51491,-1.6037 0,-0.56524 -0.41982,-1.49163 -0.93301,-2.05865 -0.51313,-0.567 -1.02032,-2.22458 -1.12703,-3.68349 -0.10683,-1.45891 -0.34503,-3.0616 -0.52955,-3.56152 -0.18446,-0.49992 -0.49192,-1.81248 -0.68334,-2.9168 -0.3113,-1.7962 -0.22101,-1.96756 0.85652,-1.62556 1.64835,0.52317 1.51176,-0.41141 -0.31044,-2.12324 -0.83319,-0.78276 -1.51491,-1.78838 -1.51491,-2.23472 0,-0.44635 -0.25777,-1.28505 -0.57287,-1.86377 -0.31504,-0.57871 -0.73467,-2.0652 -0.9324,-3.30332 -0.19778,-1.23811 -0.65219,-2.43194 -1.00977,-2.65298 -1.09353,-0.67582 -1.79529,1.13641 -1.42978,3.69216 0.19063,1.33312 0.43036,4.00497 0.5327,5.93745 0.17022,3.21375 0.0834,3.49815 -1.01844,3.3328 -2.04403,-0.30678 -3.76032,-3.26299 -3.64366,-6.27607 0.1258,-3.25182 -0.53083,-3.82377 -1.93302,-1.68369 -0.79855,1.21872 -0.97107,2.3714 -0.71964,4.80764 0.38562,3.73623 -0.4629,5.02635 -2.56559,3.90101 -0.68783,-0.36814 -1.25065,-0.80758 -1.25065,-0.97655 0,-1.3978 -2.06022,-9.81068 -2.54669,-10.39934 -1.02584,-1.24134 -1.69507,-0.2424 -1.69507,2.53024 0,3.72306 -1.1843,4.52217 -3.77418,2.54674 -1.76306,-1.34473 -2.30764,-1.46675 -4.42045,-0.99046 -1.32537,0.29878 -2.917,1.16939 -3.53701,1.9347 -1.4485,1.78808 -4.33732,7.5728 -4.85584,9.72363 -0.22045,0.91457 -0.6985,1.59628 -1.06226,1.51491 -1.50902,-0.33751 -2.45778,4.53291 -2.06633,10.60793 0.3697,5.73697 0.12461,6.67705 -1.35506,5.19743 -0.53773,-0.53774 -1.08171,-0.5417 -2.23486,-0.0163 -1.79298,0.81692 -3.15276,0.42189 -4.00058,-1.1622 -0.37957,-0.70927 -1.26675,-1.14067 -2.34579,-1.14067 -1.41233,0 -1.97241,-0.45474 -3.0085,-2.44251 -0.70024,-1.34339 -1.27314,-2.84314 -1.27314,-3.3328 0,-1.49351 -2.67642,-1.34614 -4.54472,0.25026 -1.15872,0.99005 -2.26098,1.55254 -5.86688,2.99394 -1.34282,0.53678 -1.89273,0.4391 -3.16579,-0.56232 -0.84745,-0.66657 -2.12707,-1.32485 -2.84361,-1.46284 -0.71656,-0.13806 -2.01878,-0.72121 -2.89378,-1.29601 -0.87503,-0.57482 -3.30627,-1.50653 -5.40272,-2.0705 -4.44426,-1.19549 -8.22106,-0.63086 -9.97012,1.49055 l -1.05655,1.28154 -0.37751,-1.36341 c -0.50678,-1.83039 -1.31925,-1.71852 -2.20064,0.30297 -0.39962,0.91653 -1.34813,2.26692 -2.10789,3.00089 -0.75969,0.73397 -1.38984,1.8247 -1.40033,2.42386 -0.0105,0.59914 -0.66565,1.55925 -1.45589,2.13356 -1.39002,1.0102 -1.46831,0.99611 -2.40483,-0.43316 -1.37026,-2.0913 -1.23974,-3.35384 0.32869,-3.17924 0.71309,0.0793 1.40189,-0.14951 1.53059,-0.50869 0.31879,-0.88984 -2.42301,-2.06604 -3.9098,-1.67724 -0.6625,0.17324 -1.38712,0.0196 -1.61029,-0.34155 -0.28044,-0.45373 -0.95972,-0.37007 -2.19917,0.27088 -1.40316,0.72563 -2.28981,0.79375 -4.07486,0.31308 -2.77405,-0.74696 -9.22834,0.15612 -11.74643,1.6436 -1.944,1.14835 -2.0633,1.51541 -0.82599,2.54227 0.62881,0.52189 0.80054,1.55617 0.59924,3.60999 -0.22935,2.34057 -0.0545,3.08465 0.93658,3.98139 1.45158,1.31371 1.54442,2.3141 0.30965,3.33885 -0.49992,0.4149 -0.90895,1.36287 -0.90895,2.10659 0,0.74373 -0.61355,2.02217 -1.36343,2.841 -1.70379,1.86038 -3.0552,5.41928 -2.33241,6.14209 0.31056,0.31056 0.18264,1.21301 -0.30425,2.14617 -0.4621,0.88565 -0.84187,1.91307 -0.84387,2.28316 0,0.37009 -0.70218,1.70206 -1.5558,2.95993 -0.85356,1.25786 -1.50643,3.00019 -1.45067,3.87183 0.18674,2.92135 0.0484,3.09971 -2.40435,3.09971 -1.78946,0 -2.80079,0.41851 -4.09026,1.69263 -0.94215,0.93095 -2.2873,2.08985 -2.98922,2.57535 -0.7019,0.4855 -1.84089,1.9917 -2.53105,3.34711 -0.69017,1.35542 -1.6494,2.79184 -2.13163,3.19206 -0.59566,0.49436 -0.90501,2.10105 -0.96484,5.01118 -0.10518,5.11652 -0.97965,7.02361 -4.26443,9.29997 -2.72002,1.88497 -2.78834,2.08164 -1.73514,4.99426 0.80073,2.21435 1.88526,2.35784 2.18958,0.28969 z m 109.03812,-42.33195 c -0.94311,-0.24689 -0.96518,-0.44702 -0.21015,-1.90709 0.46399,-0.89718 1.03778,-2.92625 1.27514,-4.50903 0.49731,-3.31658 0.97718,-3.80792 2.68011,-2.74442 1.3061,0.81569 2.45931,3.4523 2.45931,5.62297 0,2.64956 -3.01959,4.37125 -6.20441,3.53757 z m -10.89626,-14.55453 c -0.53664,-0.59792 -1.16363,-2.09998 -1.39335,-3.3379 -0.58416,-3.14797 -1.53315,-3.78984 -4.26847,-2.88708 -1.84523,0.60895 -2.3569,0.57798 -3.12399,-0.18911 -0.81914,-0.81915 -0.77498,-0.99353 0.41265,-1.62912 0.73146,-0.39149 1.75712,-0.54788 2.27916,-0.34753 0.5221,0.20034 1.47983,-0.11595 2.12826,-0.70275 1.11856,-1.01227 1.21854,-1.01301 1.94861,-0.0149 0.4232,0.57883 1.28482,1.06097 1.91461,1.07144 1.81563,0.0302 3.50435,2.89925 3.53864,6.01218 0.0254,2.33011 -0.1618,2.78276 -1.21502,2.93342 -0.68492,0.098 -1.6844,-0.31102 -2.2211,-0.90894 z m 26.7961,-3.17223 c 0,-0.6469 -0.27268,-1.34469 -0.60597,-1.55068 -0.89817,-0.5551 -0.73552,-2.13253 0.18355,-1.77987 0.74006,0.284 2.84627,3.35178 2.84627,4.14573 0,0.19855 -0.54537,0.36099 -1.21193,0.36099 -0.79568,0 -1.21192,-0.40399 -1.21192,-1.17617 z m -88.47077,-1.83234 c 0,-1.68527 -0.17129,-1.8392 -2.04669,-1.8392 -1.12564,0 -2.37272,0.39285 -2.7712,0.873 -0.86913,1.04725 -3.36262,0.34842 -3.36262,-0.94242 0,-0.56406 0.73534,-0.83954 2.24097,-0.83954 1.2326,0 2.58239,-0.34086 2.99953,-0.75745 0.41721,-0.4166 1.39924,-0.75746 2.18238,-0.75746 0.78309,0 2.24819,-0.42632 3.25578,-0.94738 2.23807,-1.15734 5.12404,-0.66201 6.03244,1.03537 0.89791,1.67782 -0.2939,2.94183 -2.77392,2.94183 -1.08486,0 -2.3243,0.42392 -2.7543,0.94203 -0.42998,0.51812 -1.28143,1.20943 -1.89212,1.53623 -0.96299,0.5154 -1.11025,0.3503 -1.11025,-1.24501 z m 101.53825,-0.58386 c -0.58638,-0.64797 -0.90961,-1.66022 -0.72557,-2.27236 0.34928,-1.16183 -1.45668,-3.83071 -2.59214,-3.83071 -0.36315,0 -0.66031,0.95441 -0.66031,2.12088 0,1.16649 -0.20809,2.12088 -0.46247,2.12088 -0.69596,0 -5.4998,-6.33059 -6.1986,-8.16861 -1.51987,-3.99753 -0.16785,-5.3637 3.50818,-3.54494 4.56266,2.25744 10.50657,11.11346 9.1546,13.63972 -0.72989,1.36372 -0.73086,1.36367 -2.02369,-0.0648 z m -12.62689,-2.46728 c -1.84377,-1.45031 -2.25848,-1.50595 -2.25848,-0.30297 0,0.49992 -0.2659,0.90894 -0.59082,0.90894 -0.32498,0 -0.4586,-0.88623 -0.29704,-1.96938 0.1616,-1.08316 0.13208,-1.62853 -0.0656,-1.21194 -0.41915,0.88335 -2.07634,1.02829 -2.07634,0.18161 0,-0.31672 0.47604,-0.84226 1.05782,-1.16785 1.12747,-0.63097 1.26999,-0.26088 -3.60408,-9.35934 -1.29671,-2.42062 -1.34252,-4.22304 -0.165,-6.50002 1.03528,-2.00208 1.7931,-2.26342 2.35059,-0.81059 0.29837,0.77744 0.55391,0.82872 1.25022,0.25081 1.53467,-1.27363 2.14027,-0.0584 2.14027,4.29467 0,4.32611 0.46956,5.74712 3.96748,12.0066 1.37495,2.46039 1.53151,4.8914 0.31517,4.8914 -0.26589,0 -1.17679,-0.54537 -2.02417,-1.21194 z m -36.43814,-1.94761 -1.76056,-0.64002 2.25364,-1.09619 c 1.23957,-0.60292 2.62425,-0.954 3.07715,-0.78021 1.36936,0.52547 1.5509,1.98269 0.32849,2.6369 -1.35536,0.72536 -1.59205,0.71804 -3.89872,-0.12042 z m 92.42486,64.55536 c 0.49156,-1.58011 0.88962,-1.9077 2.2091,-1.81789 1.10165,0.075 1.67882,-0.22507 1.82917,-0.95091 0.17082,-0.82455 -0.18785,-1.06042 -1.61253,-1.06042 -1.11158,0 -2.06452,-0.41512 -2.42283,-1.05539 -0.90786,-1.62222 -1.48946,-0.48427 -1.77577,3.47445 -0.26882,3.71583 0.41011,7.0565 0.9245,4.54952 0.13671,-0.66657 0.51854,-2.07928 0.84836,-3.13936 z m -257.37602,-4.02458 c 0.1874,-0.72576 1.1664,-1.78408 2.17556,-2.35181 1.00915,-0.56774 1.83482,-1.45397 1.83482,-1.96938 0,-0.51543 0.22057,-0.93713 0.49015,-0.93713 2.10184,0 4.3344,-5.65631 3.12472,-7.91663 -0.3407,-0.63661 -0.11564,-1.62398 0.66117,-2.90146 0.6477,-1.06506 1.17764,-2.28163 1.17764,-2.70351 0,-0.4219 1.09074,-1.97232 2.42386,-3.44541 1.33312,-1.47307 2.42386,-3.01172 2.42386,-3.4192 0,-0.40748 0.54566,-0.91407 1.21257,-1.12573 1.49308,-0.47388 2.5441,-2.31244 2.05322,-3.59168 -0.46513,-1.21214 -0.92302,-1.19676 -3.20464,0.10757 -1.22372,0.69957 -2.11681,1.88073 -2.62445,3.471 -0.42323,1.32582 -1.31992,2.68923 -1.99266,3.02982 -2.14701,1.08697 -3.83491,3.19951 -5.68179,7.11117 -1.97288,4.17851 -4.91781,7.74824 -6.39211,7.74824 -0.5187,0 -0.9431,0.29012 -0.9431,0.64473 0,0.36243 -0.86229,0.56143 -1.96939,0.45447 -1.75466,-0.16951 -1.99032,-0.007 -2.16146,1.4796 -0.24636,2.14181 1.30386,2.82159 2.97848,1.30606 1.05357,-0.95346 1.30892,-0.98516 1.81241,-0.22499 0.32234,0.48667 0.42544,2.04296 0.22913,3.45842 -0.19632,1.41547 -0.19527,2.83514 0.003,3.15485 0.56274,0.91053 1.99348,0.078 2.36969,-1.37903 z m 258.67085,-10.18256 c -0.41667,-1.59341 -1.1303,-1.91093 -2.56686,-1.1421 -1.66156,0.88921 -1.53916,1.60355 0.44192,2.57881 1.82935,0.90059 2.59989,0.37957 2.12494,-1.43671 z M 176.23495,755.94287 c 0.44276,-0.58325 0.81366,-1.55119 0.82427,-2.15097 0.0336,-1.90805 1.84189,-4.69793 3.43816,-5.30483 1.21344,-0.46134 2.04585,-0.30398 3.8977,0.73681 2.28598,1.28479 2.3905,1.29109 3.57871,0.21576 1.26691,-1.14651 1.54402,-3.40988 0.84525,-6.90373 -0.44743,-2.23718 -0.93183,-2.38868 -1.74994,-0.54734 -0.329,0.74047 -2.23427,2.26114 -4.23396,3.37928 -5.55542,3.10634 -6.7203,4.54873 -7.85843,9.73064 -0.46523,2.11815 0.036,2.45452 1.25824,0.84438 z M 136.4789,750.3247 c 0,-0.34042 0.65164,-0.91585 1.44809,-1.27874 1.64216,-0.74822 3.0769,-3.3094 2.16841,-3.87088 -1.03235,-0.63803 -4.82842,2.76274 -4.82842,4.32559 0,0.79364 0.27268,1.44299 0.60595,1.44299 0.33329,0 0.60597,-0.27853 0.60597,-0.61896 z m 43.04797,-12.22025 c 2.13711,-1.58002 2.32636,-3.61391 0.58144,-6.24866 -1.62762,-2.45763 -1.52673,-3.10451 0.59986,-3.84584 1.27251,-0.44359 1.70412,-0.91215 1.45008,-1.57418 -0.2643,-0.68874 0.023,-0.94215 1.06653,-0.94091 0.78555,10e-4 2.51899,-0.53015 3.85212,-1.18016 1.33312,-0.65002 2.96921,-1.38046 3.63578,-1.62322 2.63117,-0.95822 -1.51516,-0.93519 -5.36297,0.0299 -2.09216,0.52469 -4.46821,0.95815 -5.28011,0.96326 -1.90162,0.0119 -3.37537,0.89364 -2.44985,1.46565 1.73831,1.07432 -0.87949,3.97875 -3.58607,3.97875 -1.37043,0 -1.97059,0.36215 -2.37861,1.43533 -0.30015,0.78943 -1.19244,1.94835 -1.9829,2.57535 -0.79044,0.62701 -1.65569,1.49825 -1.92279,1.93612 -0.70131,1.14968 3.94613,0.2701 4.89746,-0.92691 0.54147,-0.68129 1.12941,-0.76796 2.38056,-0.3509 2.29355,0.7645 3.16,2.26402 2.19816,3.8042 -1.42997,2.28972 -0.41573,2.51111 2.30131,0.50231 z m 263.87284,-23.80804 c 1.95484,-2.21656 5.2699,-3.50145 7.16995,-2.77905 1.38287,0.52577 1.74045,0.4128 2.5359,-0.80119 0.50932,-0.77729 0.7543,-1.86071 0.54446,-2.4076 -0.28044,-0.73076 -0.0383,-0.99433 0.91421,-0.99433 1.50061,0 2.33594,-1.58801 1.35264,-2.57136 -0.49205,-0.49203 -0.49046,-0.89075 0.006,-1.48882 1.14126,-1.37515 -0.0719,-1.73516 -2.04035,-0.60546 -1.6558,0.95028 -1.97181,0.96828 -2.86155,0.16308 -0.56269,-0.50924 -1.56054,-0.75868 -2.28109,-0.57025 -1.04093,0.27221 -1.35488,-0.001 -1.67579,-1.46318 -0.3677,-1.67401 -0.6333,-1.82478 -3.84752,-2.18412 -7.2126,-0.80633 -14.17246,3.7123 -14.94845,9.70517 -0.2104,1.62453 -0.66009,3.45747 -0.99936,4.07317 -0.33934,0.61569 -0.46665,1.26973 -0.28292,1.45342 0.54706,0.54708 5.20364,-2.96543 5.20364,-3.92517 0,-1.25458 2.354,-4.40437 3.29167,-4.40437 0.43186,0 1.51418,1.05183 2.40507,2.33738 1.46406,2.11265 1.56302,2.59017 1.02905,4.96658 -0.32492,1.44606 -0.45465,2.84941 -0.28832,3.11854 0.51622,0.83529 3.49974,-0.17887 4.77287,-1.62244 z m -87.56182,-3.64937 c 0,-1.83303 -0.20626,-3.3328 -0.45842,-3.3328 -0.25214,0 -0.80762,1.1188 -1.23441,2.48623 -0.59038,1.89173 -0.60789,2.68864 -0.0734,3.3328 1.28732,1.55114 1.76614,0.87713 1.76614,-2.48623 z m 86.04692,-18.7931 c 0,-0.17116 -0.33256,-0.84366 -0.73898,-1.49444 -0.63444,-1.0159 -0.49077,-1.44225 1.01565,-3.01463 0.965,-1.00727 2.25195,-1.98924 2.85985,-2.18217 2.19383,-0.6963 1.03644,-1.48105 -2.18432,-1.48105 -1.97508,0 -3.62075,0.33125 -4.11849,0.829 -0.45599,0.45595 -1.49801,1.01846 -2.31563,1.25001 -2.23014,0.63156 -4.21352,1.6978 -4.21352,2.26513 0,0.92239 1.74815,0.51899 2.41314,-0.55687 0.61893,-1.00126 0.69667,-0.99673 1.39353,0.0811 1.82171,2.81779 3.66396,4.61505 4.7307,4.61505 0.63693,0 1.15807,-0.14 1.15807,-0.3112 z m -42.96475,-11.20211 c 1.69434,-2.61476 2.23388,-3.02983 3.93882,-3.02983 2.32739,0 3.88001,-1.33514 3.88001,-3.33663 0,-1.93018 1.03656,-4.5409 1.80286,-4.5409 0.34152,0 0.62098,0.78127 0.62098,1.73617 0,0.9549 0.5961,2.52283 1.32472,3.4843 0.72854,0.96146 1.40364,1.85516 1.50023,1.98596 0.0967,0.13074 0.54737,-0.0707 1.00178,-0.44783 0.45441,-0.37711 1.89256,-0.68416 3.19592,-0.68233 8.58141,0.0119 11.8666,-0.35376 12.44414,-1.38581 0.71412,-1.27605 1.936,-1.34282 3.73267,-0.20396 0.73814,0.46789 2.501,1.03723 3.91744,1.26519 2.48415,0.3998 2.57534,0.35782 2.57534,-1.18521 0,-1.24509 -0.41762,-1.74528 -1.88381,-2.2564 -1.73276,-0.60404 -1.85632,-0.82653 -1.54019,-2.7743 0.21671,-1.33541 -2.3e-4,-2.78252 -0.58729,-3.91775 l -0.93089,-1.80017 -1.46769,1.37881 c -0.80721,0.75835 -1.46765,2.05968 -1.46765,2.89187 0,1.47301 -1.51043,3.72936 -2.49645,3.72936 -1.27137,0 -1.70912,-2.3625 -0.82836,-4.47046 0.4955,-1.18592 0.90095,-2.72873 0.90095,-3.42845 0,-1.04097 -0.24784,-1.19516 -1.36341,-0.84831 -0.74988,0.23315 -1.45433,0.66056 -1.5654,0.94977 -0.11116,0.28924 -0.65649,0.51721 -1.21192,0.5066 -0.88683,-0.0169 -0.87175,-0.12401 0.12386,-0.87798 0.80933,-0.61287 1.02554,-1.29062 0.75527,-2.36745 -0.42938,-1.71078 0.49883,-2.61857 1.67744,-1.64044 0.96851,0.80379 1.58114,0.26284 1.59337,-1.40699 0.006,-0.69433 0.24257,-1.6305 0.52761,-2.08038 0.80921,-1.27688 4.35409,-1.75135 6.73469,-0.9014 1.16649,0.41648 3.42963,0.7692 5.02931,0.78383 1.59964,0.0149 3.72929,0.4511 4.73265,0.96994 1.93926,1.00283 5.96469,0.98012 6.09818,-0.0344 0.0898,-0.68266 -14.36213,-8.18052 -15.76779,-8.18052 -0.49822,0 -1.3364,-0.35727 -1.86255,-0.79394 -2.89591,-2.40332 -15.8336,-3.5592 -19.26759,-1.72141 -0.71675,0.38361 -2.26626,0.69746 -3.44334,0.69746 -2.12506,0 -6.42305,1.65191 -6.42305,2.46865 0,0.778 4.06645,1.2038 5.67087,0.59381 1.32839,-0.50506 1.68531,-0.40083 2.25176,0.65757 0.49229,0.91983 0.85343,1.07749 1.34415,0.58677 0.91445,-0.91443 4.47238,-0.85076 4.82893,0.0865 0.49744,1.30747 -0.67232,3.4843 -1.87231,3.4843 -0.63081,0 -2.07118,0.61386 -3.20089,1.36414 -2.77386,1.84229 -5.95244,3.34978 -7.91972,3.756 -0.89319,0.18445 -2.03265,0.74398 -2.53207,1.24339 -0.49939,0.49943 -1.52952,0.90804 -2.28916,0.90804 -2.03077,0 -5.97698,4.08197 -5.97698,6.18261 0,1.09086 -0.31899,1.69492 -0.89501,1.69492 -0.49223,0 -1.3124,0.63709 -1.82262,1.41576 -0.85841,1.3101 -0.81048,1.63612 0.64195,4.36771 1.27708,2.40188 1.49686,3.43655 1.17952,5.55281 -0.37067,2.47191 -0.31523,2.60089 1.11866,2.60089 1.14479,0 1.98242,-0.73098 3.472,-3.02981 z m 14.48443,-9.9683 c 0,-0.48336 0.46883,-1.1412 1.0419,-1.46189 0.69467,-0.38879 0.99432,-1.20646 0.8993,-2.45397 -0.11295,-1.48203 0.0959,-1.8709 1.00481,-1.8709 0.631,0 1.48431,0.40601 1.89619,0.90227 1.22405,1.47494 1.98684,0.36318 1.56424,-2.27988 -0.32129,-2.00919 -0.15459,-2.68768 0.94929,-3.86266 1.30913,-1.39354 2.94056,-1.83439 3.75917,-1.01582 0.22523,0.22523 -0.11206,0.97511 -0.74952,1.66639 -0.63742,0.69129 -1.38978,2.72738 -1.67192,4.52466 -0.29892,1.9044 -0.89216,3.44481 -1.42189,3.69213 -0.49992,0.23339 -2.13603,1.01328 -3.63579,1.7331 -3.21687,1.54398 -3.63578,1.59312 -3.63578,0.42657 z m 15.1491,-19.70374 c 0,-0.74082 0.59942,-1.53122 1.45789,-1.92237 1.17994,-0.53763 1.75366,-0.44851 3.00927,0.46745 2.15481,1.57194 1.67567,2.31228 -1.63621,2.52836 -2.52093,0.16447 -2.83095,0.0469 -2.83095,-1.07344 z m -6.05964,-2.74705 c 0,-1.77752 0.10803,-1.80352 2.45397,-0.5904 2.39453,1.23827 2.25733,2.10533 -0.33309,2.10533 -1.85832,0 -2.12088,-0.18757 -2.12088,-1.51493 z m -39.73319,9.07583 c 1.84449,-1.70941 1.79977,-2.92166 -0.11803,-3.20479 -1.48806,-0.21969 -3.5046,2.38708 -2.9548,3.81972 0.49173,1.28155 1.17381,1.14505 3.0729,-0.61493 z"
       id="path3050"
       inkscape:connector-curvature="0"
       sodipodi:nodetypes="csscsscssscsscsssssssssssscssssssssscsscscssscsssssssccssscssscsssssssssaaassssssaaaaaassssssscsssssssssssssssssccssscccssssscssssssscsssscssccscssssssssscscsscccsccsccccscscccccscsscssssscssssssscsaaaasscsscsssccssssscssssccccccsssscsscsssscsssccscsssscscsccscscssccssccsssssssscccscccsssssscsssccssscccsscscccsccccssccssccccssccssssscscscscssssccccccccsccsscccccsccssccccscsscsccccscscscsscccccscscssccscscscccscsccsscscsssccssccccssscscsccccsccsssccccscsccccscccscssscscccscscscscsccsccccsccscccsccsscccsscsscccsscssssscccccssccscsccscsccccsscsssscssscscssccsccssssscccccsccssscccssscccccsscccccscccccsssscsssssssssssscssscccscsscssscsssscscssssccsccscccssccssccccccscsccscscscccsssssccccccccccscscssccscccsssscccccssssccccssssscccscccscccsccssssscscccsssccssccsscscccccccsssssssscsscccccc" />
    <path
       style="fill:#ffffff;stroke:none"
       d="m 165.48843,958.31762 c 2.14225,-3.32048 5.2485,-1.92802 5.2485,0.8569 0,2.78492 0.32134,5.03427 -2.89203,4.28449 -3.21337,-0.74979 -4.17738,-1.7138 -4.28449,-3.10626 -0.10711,-1.39246 1.92802,-2.03513 1.92802,-2.03513 z"
       id="path3343"
       inkscape:connector-curvature="0" />
    <path
       style="fill:#ffffff;stroke:none"
       d="m 289.52681,930.0271 c 2.14225,-3.32048 3.32048,0.21423 3.32048,2.99915 0,2.78492 0.96401,4.92716 -2.24936,4.17738 -3.21337,-0.74979 -2.78492,-2.03514 -2.89203,-3.4276 -0.10711,-1.39246 1.82091,-3.74893 1.82091,-3.74893 z"
       id="path3343-5"
       inkscape:connector-curvature="0"
       sodipodi:nodetypes="csssc" />
  </g>
</svg>
